<svg width="50" height="50" viewBox="0 0 50 50" fill="none" xmlns="http://www.w3.org/2000/svg">
<g clip-path="url(#clip0_2_8)">
<g filter="url(#filter0_d_2_8)">
<path d="M24.6667 38.1667H24.6894M22.3889 10.8333H26.9444M18.2889 45H31.0444C33.5958 45 34.8716 45 35.846 44.5034C36.7031 44.0668 37.4001 43.3698 37.8368 42.5127C38.3333 41.5382 38.3333 40.2624 38.3333 37.7111V11.2889C38.3333 8.73755 38.3333 7.46186 37.8368 6.48738C37.4001 5.63018 36.7031 4.93327 35.846 4.49653C34.8716 4 33.5958 4 31.0444 4H18.2889C15.7375 4 14.4619 4 13.4874 4.49653C12.6302 4.93327 11.9333 5.63018 11.4965 6.48738C11 7.46186 11 8.73753 11 11.2889V37.7111C11 40.2624 11 41.5382 11.4965 42.5127C11.9333 43.3698 12.6302 44.0668 13.4874 44.5034C14.4619 45 15.7375 45 18.2889 45Z" stroke="#FFADCD" stroke-width="5" stroke-linecap="round" stroke-linejoin="round" shape-rendering="crispEdges"/>
</g>
</g>
<defs>
<filter id="filter0_d_2_8" x="6.5" y="-0.5" width="36.3333" height="50" filterUnits="userSpaceOnUse" color-interpolation-filters="sRGB">
<feFlood flood-opacity="0" result="BackgroundImageFix"/>
<feColorMatrix in="SourceAlpha" type="matrix" values="0 0 0 0 0 0 0 0 0 0 0 0 0 0 0 0 0 0 127 0" result="hardAlpha"/>
<feOffset/>
<feGaussianBlur stdDeviation="1"/>
<feComposite in2="hardAlpha" operator="out"/>
<feColorMatrix type="matrix" values="0 0 0 0 1 0 0 0 0 0.678431 0 0 0 0 0.803922 0 0 0 1 0"/>
<feBlend mode="normal" in2="BackgroundImageFix" result="effect1_dropShadow_2_8"/>
<feBlend mode="normal" in="SourceGraphic" in2="effect1_dropShadow_2_8" result="shape"/>
</filter>
<clipPath id="clip0_2_8">
<rect width="50" height="50" fill="white"/>
</clipPath>
</defs>
</svg>
