<svg width="50" height="50" viewBox="0 0 50 50" fill="none" xmlns="http://www.w3.org/2000/svg">
<g clip-path="url(#clip0_2_10)">
<g filter="url(#filter0_d_2_10)">
<path d="M42.4521 31.1442C43.3817 28.1515 45.4752 17.0837 30.096 7.21013C29.5544 6.86354 28.8433 6.95461 28.4138 7.41756C27.9815 7.8805 27.9633 8.57871 28.3696 9.06442C28.4321 9.13779 34.0983 16.0415 32.0829 23.9267C28.5988 21.5285 14.7427 10.5469 14.7427 10.5469L22.75 23.6667L7.87855 14.0835C7.87855 14.0835 18.3909 26.9902 24.8254 31.8448C21.711 32.9629 14.9432 34.1469 6.00625 28.5917C5.50109 28.2754 4.83707 28.336 4.39959 28.7458C3.96732 29.1481 3.87357 29.7906 4.17823 30.2942C4.47771 30.79 11.6413 42.4167 26.789 42.4167C30.9448 42.4167 33.3744 41.2327 35.3275 40.2842C36.5279 39.7023 37.4756 39.2394 38.5096 39.2394C41.0848 39.2394 42.7748 41.7969 42.7904 41.8196C43.03 42.1915 43.4494 42.4167 43.8973 42.4167C43.931 42.4167 43.9675 42.4142 44.004 42.4117C44.4908 42.3737 44.9127 42.0777 45.1002 41.64C46.9596 37.3217 43.7567 32.7479 42.4521 31.1442Z" stroke="#FFADCD" stroke-width="5" stroke-linecap="round" stroke-linejoin="round" shape-rendering="crispEdges"/>
</g>
</g>
<defs>
<filter id="filter0_d_2_10" x="-0.500378" y="2.50009" width="50.6675" height="44.4166" filterUnits="userSpaceOnUse" color-interpolation-filters="sRGB">
<feFlood flood-opacity="0" result="BackgroundImageFix"/>
<feColorMatrix in="SourceAlpha" type="matrix" values="0 0 0 0 0 0 0 0 0 0 0 0 0 0 0 0 0 0 127 0" result="hardAlpha"/>
<feOffset/>
<feGaussianBlur stdDeviation="1"/>
<feComposite in2="hardAlpha" operator="out"/>
<feColorMatrix type="matrix" values="0 0 0 0 1 0 0 0 0 0.678431 0 0 0 0 0.803922 0 0 0 1 0"/>
<feBlend mode="normal" in2="BackgroundImageFix" result="effect1_dropShadow_2_10"/>
<feBlend mode="normal" in="SourceGraphic" in2="effect1_dropShadow_2_10" result="shape"/>
</filter>
<clipPath id="clip0_2_10">
<rect width="50" height="50" fill="white"/>
</clipPath>
</defs>
</svg>
